<svg width="265.032" height="55.081" viewBox="0 0 265.032 55.081" xmlns="http://www.w3.org/2000/svg"><g id="svgGroup" stroke-linecap="round" fill-rule="evenodd" font-size="9pt" stroke="#ffffff" stroke-width="0.25mm" fill="#ffffff" style="stroke:#ffffff;stroke-width:0.25mm;fill:#ffffff"><path d="M 126.864 39.744 L 127.8 40.608 A 30.66 30.66 0 0 1 124.915 45.89 A 27.795 27.795 0 0 1 124.128 46.98 A 20.764 20.764 0 0 1 121.711 49.667 A 16.561 16.561 0 0 1 119.376 51.48 A 10.629 10.629 0 0 1 116.392 52.819 A 9.325 9.325 0 0 1 113.976 53.136 A 7.395 7.395 0 0 1 112.562 53.01 Q 111.737 52.849 111.099 52.483 A 3.762 3.762 0 0 1 110.268 51.84 A 4.407 4.407 0 0 1 109.014 48.871 A 5.795 5.795 0 0 1 109.008 48.6 A 9.449 9.449 0 0 1 109.135 47.104 Q 109.251 46.378 109.475 45.586 A 16.59 16.59 0 0 1 109.584 45.216 Q 110.16 43.344 110.7 41.4 A 15.278 15.278 0 0 0 111.133 39.31 A 12.101 12.101 0 0 0 111.24 37.728 A 7.003 7.003 0 0 0 111.184 36.81 Q 111.046 35.766 110.564 35.191 A 1.942 1.942 0 0 0 110.448 35.064 Q 109.656 34.272 108.504 34.272 A 4.286 4.286 0 0 0 105.817 35.223 A 5.89 5.89 0 0 0 105.264 35.712 Q 103.914 37.062 102.785 39.14 A 21.101 21.101 0 0 0 102.636 39.42 A 58.195 58.195 0 0 0 100.667 43.582 A 64.057 64.057 0 0 0 100.404 44.208 Q 99.36 46.728 98.424 48.996 A 31.819 31.819 0 0 1 97.722 50.581 Q 97.137 51.804 96.552 52.704 Q 95.745 53.945 94.885 54.117 A 1.414 1.414 0 0 1 94.608 54.144 A 1.61 1.61 0 0 1 93.452 53.638 Q 92.947 53.142 92.564 52.159 A 8.398 8.398 0 0 1 92.448 51.84 A 14.348 14.348 0 0 1 91.787 48.901 A 18.599 18.599 0 0 1 91.656 46.656 Q 91.656 43.2 92.808 38.448 A 93.318 93.318 0 0 1 94.529 32.312 A 113.703 113.703 0 0 1 95.832 28.44 Q 97.704 23.184 100.044 18.144 A 110.876 110.876 0 0 1 102.711 12.771 A 88.372 88.372 0 0 1 104.832 9 A 63.06 63.06 0 0 1 106.591 6.21 Q 107.471 4.896 108.31 3.817 A 28.599 28.599 0 0 1 109.44 2.448 A 14.024 14.024 0 0 1 110.421 1.435 Q 111.476 0.459 112.375 0.147 A 2.465 2.465 0 0 1 113.184 0 Q 114.48 0 115.02 1.548 Q 115.56 3.096 115.56 4.536 A 11.488 11.488 0 0 1 115.433 6.17 Q 115.315 6.993 115.085 7.922 A 26.022 26.022 0 0 1 114.66 9.432 A 39.669 39.669 0 0 1 113.511 12.604 A 52.545 52.545 0 0 1 112.176 15.588 Q 110.592 18.864 108.504 22.032 A 44.125 44.125 0 0 1 104.121 27.664 A 40.92 40.92 0 0 1 103.968 27.828 A 27.187 27.187 0 0 1 101.58 30.112 A 20.054 20.054 0 0 1 99 31.968 A 27.569 27.569 0 0 0 98.108 34.477 A 35.295 35.295 0 0 0 97.524 36.648 A 44.818 44.818 0 0 0 96.701 41.102 A 40.866 40.866 0 0 0 96.624 41.724 Q 96.366 43.946 96.339 45.736 A 27.416 27.416 0 0 0 96.336 46.152 A 29.754 29.754 0 0 0 96.341 46.716 Q 96.346 46.994 96.357 47.239 A 15.308 15.308 0 0 0 96.372 47.52 A 14.694 14.694 0 0 0 96.431 48.212 A 12.165 12.165 0 0 0 96.48 48.6 Q 97.488 45.648 98.676 42.876 A 48.496 48.496 0 0 1 100.395 39.269 A 41.33 41.33 0 0 1 101.232 37.764 A 29.052 29.052 0 0 1 102.828 35.314 A 23.398 23.398 0 0 1 104.148 33.66 A 14.393 14.393 0 0 1 105.792 32.052 A 11.138 11.138 0 0 1 107.424 30.924 Q 109.152 29.952 111.096 29.952 A 6.771 6.771 0 0 1 112.411 30.073 Q 113.53 30.294 114.3 30.924 Q 115.488 31.896 116.028 33.372 Q 116.568 34.848 116.568 36.432 Q 116.568 38.664 115.812 40.752 A 109.72 109.72 0 0 1 114.313 44.663 A 100.844 100.844 0 0 1 114.264 44.784 A 11.14 11.14 0 0 0 113.652 46.78 A 8.817 8.817 0 0 0 113.472 48.528 Q 113.472 49.94 114.06 50.591 A 1.616 1.616 0 0 0 114.084 50.616 Q 114.696 51.264 115.632 51.264 A 4.214 4.214 0 0 0 117.029 51.008 Q 118.114 50.627 119.34 49.68 A 18.761 18.761 0 0 0 121.256 47.966 Q 122.168 47.037 123.073 45.898 A 32.055 32.055 0 0 0 123.408 45.468 Q 125.424 42.84 126.864 39.744 Z M 217.368 39.744 L 218.304 40.608 A 30.66 30.66 0 0 1 215.419 45.89 A 27.795 27.795 0 0 1 214.632 46.98 A 20.764 20.764 0 0 1 212.215 49.667 A 16.561 16.561 0 0 1 209.88 51.48 A 10.629 10.629 0 0 1 206.896 52.819 A 9.325 9.325 0 0 1 204.48 53.136 A 7.395 7.395 0 0 1 203.066 53.01 Q 202.241 52.849 201.603 52.483 A 3.762 3.762 0 0 1 200.772 51.84 A 4.407 4.407 0 0 1 199.518 48.871 A 5.795 5.795 0 0 1 199.512 48.6 A 9.449 9.449 0 0 1 199.639 47.104 Q 199.755 46.378 199.979 45.586 A 16.59 16.59 0 0 1 200.088 45.216 Q 200.664 43.344 201.204 41.4 A 15.278 15.278 0 0 0 201.637 39.31 A 12.101 12.101 0 0 0 201.744 37.728 A 7.003 7.003 0 0 0 201.688 36.81 Q 201.55 35.766 201.068 35.191 A 1.942 1.942 0 0 0 200.952 35.064 Q 200.16 34.272 199.008 34.272 A 4.286 4.286 0 0 0 196.321 35.223 A 5.89 5.89 0 0 0 195.768 35.712 Q 194.418 37.062 193.289 39.14 A 21.101 21.101 0 0 0 193.14 39.42 A 58.195 58.195 0 0 0 191.171 43.582 A 64.057 64.057 0 0 0 190.908 44.208 Q 189.864 46.728 188.928 48.996 A 31.819 31.819 0 0 1 188.226 50.581 Q 187.641 51.804 187.056 52.704 Q 186.249 53.945 185.389 54.117 A 1.414 1.414 0 0 1 185.112 54.144 A 1.61 1.61 0 0 1 183.956 53.638 Q 183.451 53.142 183.068 52.159 A 8.398 8.398 0 0 1 182.952 51.84 A 14.348 14.348 0 0 1 182.291 48.901 A 18.599 18.599 0 0 1 182.16 46.656 Q 182.16 43.2 183.312 38.448 A 93.318 93.318 0 0 1 185.033 32.312 A 113.703 113.703 0 0 1 186.336 28.44 Q 188.208 23.184 190.548 18.144 A 110.876 110.876 0 0 1 193.215 12.771 A 88.372 88.372 0 0 1 195.336 9 A 63.06 63.06 0 0 1 197.095 6.21 Q 197.975 4.896 198.814 3.817 A 28.599 28.599 0 0 1 199.944 2.448 A 14.024 14.024 0 0 1 200.925 1.435 Q 201.98 0.459 202.879 0.147 A 2.465 2.465 0 0 1 203.688 0 Q 204.984 0 205.524 1.548 Q 206.064 3.096 206.064 4.536 A 11.488 11.488 0 0 1 205.937 6.17 Q 205.819 6.993 205.589 7.922 A 26.022 26.022 0 0 1 205.164 9.432 A 39.669 39.669 0 0 1 204.015 12.604 A 52.545 52.545 0 0 1 202.68 15.588 Q 201.096 18.864 199.008 22.032 A 44.125 44.125 0 0 1 194.625 27.664 A 40.92 40.92 0 0 1 194.472 27.828 A 27.187 27.187 0 0 1 192.084 30.112 A 20.054 20.054 0 0 1 189.504 31.968 A 27.569 27.569 0 0 0 188.612 34.477 A 35.295 35.295 0 0 0 188.028 36.648 A 44.818 44.818 0 0 0 187.205 41.102 A 40.866 40.866 0 0 0 187.128 41.724 Q 186.87 43.946 186.843 45.736 A 27.416 27.416 0 0 0 186.84 46.152 A 29.754 29.754 0 0 0 186.845 46.716 Q 186.85 46.994 186.861 47.239 A 15.308 15.308 0 0 0 186.876 47.52 A 14.694 14.694 0 0 0 186.935 48.212 A 12.165 12.165 0 0 0 186.984 48.6 Q 187.992 45.648 189.18 42.876 A 48.496 48.496 0 0 1 190.899 39.269 A 41.33 41.33 0 0 1 191.736 37.764 A 29.052 29.052 0 0 1 193.332 35.314 A 23.398 23.398 0 0 1 194.652 33.66 A 14.393 14.393 0 0 1 196.296 32.052 A 11.138 11.138 0 0 1 197.928 30.924 Q 199.656 29.952 201.6 29.952 A 6.771 6.771 0 0 1 202.915 30.073 Q 204.034 30.294 204.804 30.924 Q 205.992 31.896 206.532 33.372 Q 207.072 34.848 207.072 36.432 Q 207.072 38.664 206.316 40.752 A 109.72 109.72 0 0 1 204.817 44.663 A 100.844 100.844 0 0 1 204.768 44.784 A 11.14 11.14 0 0 0 204.156 46.78 A 8.817 8.817 0 0 0 203.976 48.528 Q 203.976 49.94 204.564 50.591 A 1.616 1.616 0 0 0 204.588 50.616 Q 205.2 51.264 206.136 51.264 A 4.214 4.214 0 0 0 207.533 51.008 Q 208.618 50.627 209.844 49.68 A 18.761 18.761 0 0 0 211.76 47.966 Q 212.672 47.037 213.577 45.898 A 32.055 32.055 0 0 0 213.912 45.468 Q 215.928 42.84 217.368 39.744 Z M 50.4 39.744 L 51.264 40.752 A 36.931 36.931 0 0 1 48.859 45.83 A 41.577 41.577 0 0 1 48.312 46.764 A 19.985 19.985 0 0 1 45.959 49.945 A 16.78 16.78 0 0 1 44.1 51.696 Q 41.688 53.64 38.808 53.64 Q 36.288 53.64 35.136 52.092 A 5.812 5.812 0 0 1 34.026 49.189 A 7.494 7.494 0 0 1 33.984 48.384 Q 33.984 46.584 34.524 44.784 Q 35.064 42.984 35.604 41.256 A 13.533 13.533 0 0 0 35.954 39.912 Q 36.096 39.211 36.132 38.581 A 7.362 7.362 0 0 0 36.144 38.16 A 5.018 5.018 0 0 0 36.098 37.456 Q 35.984 36.652 35.583 36.229 A 1.417 1.417 0 0 0 35.496 36.144 A 2.36 2.36 0 0 0 34.857 35.731 A 2.016 2.016 0 0 0 34.056 35.568 Q 32.514 35.568 30.735 37.628 A 14.84 14.84 0 0 0 30.132 38.376 A 89.122 89.122 0 0 0 28.681 40.356 Q 26.95 42.782 24.624 46.296 A 24.489 24.489 0 0 0 22.936 49.238 A 22.102 22.102 0 0 0 22.68 49.788 Q 21.888 51.552 21.168 52.992 A 5.972 5.972 0 0 1 20.717 52.974 Q 20.281 52.941 19.728 52.848 A 6.454 6.454 0 0 1 18.813 52.63 A 5.182 5.182 0 0 1 18.18 52.38 A 1.935 1.935 0 0 1 17.889 52.213 Q 17.742 52.109 17.65 51.99 A 0.698 0.698 0 0 1 17.496 51.552 A 1.618 1.618 0 0 1 17.526 51.277 Q 17.612 50.801 17.94 49.829 A 38.258 38.258 0 0 1 18.18 49.14 Q 18.864 47.232 19.764 44.676 Q 20.664 42.12 21.348 39.492 Q 22.032 36.864 22.032 34.992 Q 22.032 33.768 21.636 33.012 A 1.337 1.337 0 0 0 20.671 32.298 A 2.186 2.186 0 0 0 20.232 32.256 A 3.413 3.413 0 0 0 19.081 32.477 Q 17.889 32.905 16.416 34.164 A 25.897 25.897 0 0 0 14.435 36.061 Q 13.467 37.086 12.473 38.321 A 47.288 47.288 0 0 0 11.808 39.168 A 58.736 58.736 0 0 0 8.386 44.157 A 67.417 67.417 0 0 0 7.308 45.972 A 46.71 46.71 0 0 0 4.635 51.399 A 40.755 40.755 0 0 0 3.888 53.352 Q 3.417 53.352 2.794 53.238 A 10.97 10.97 0 0 1 2.304 53.136 A 8.013 8.013 0 0 1 1.482 52.902 Q 1.075 52.761 0.73 52.584 A 4.928 4.928 0 0 1 0.684 52.56 Q 0.214 52.313 0.067 52.066 A 0.438 0.438 0 0 1 0 51.84 A 1.267 1.267 0 0 1 0.027 51.619 Q 0.142 51.01 0.756 49.284 Q 1.276 47.824 1.898 45.956 A 278.566 278.566 0 0 0 2.484 44.172 Q 3.456 41.184 4.212 38.088 A 30.37 30.37 0 0 0 4.701 35.692 Q 4.893 34.495 4.947 33.43 A 16.114 16.114 0 0 0 4.968 32.616 A 2.978 2.978 0 0 1 5.325 32.27 Q 5.722 31.939 6.336 31.608 A 4.098 4.098 0 0 1 7.936 31.119 A 3.971 3.971 0 0 1 8.28 31.104 Q 8.919 31.104 9.341 31.307 A 1.365 1.365 0 0 1 9.756 31.608 Q 10.213 32.101 10.224 32.936 A 3.144 3.144 0 0 1 10.224 32.976 Q 10.224 33.88 9.72 36.027 A 48.569 48.569 0 0 1 9.684 36.18 Q 9.144 38.448 8.352 41.184 A 59.396 59.396 0 0 1 10.519 37.965 A 69.971 69.971 0 0 1 11.628 36.468 A 43.872 43.872 0 0 1 15.166 32.358 A 40.164 40.164 0 0 1 15.48 32.04 A 25.211 25.211 0 0 1 17.632 30.112 A 19.543 19.543 0 0 1 19.548 28.764 A 9.499 9.499 0 0 1 21.197 27.949 Q 22.39 27.504 23.544 27.504 A 4.756 4.756 0 0 1 24.688 27.633 A 2.803 2.803 0 0 1 26.604 29.124 A 7.322 7.322 0 0 1 27.274 31.141 A 10.12 10.12 0 0 1 27.432 32.976 A 18.271 18.271 0 0 1 27.245 35.537 A 21.791 21.791 0 0 1 27.036 36.756 A 44.404 44.404 0 0 1 26.499 39.119 A 36.273 36.273 0 0 1 26.136 40.428 Q 25.643 42.083 25.219 43.083 A 12.063 12.063 0 0 1 25.2 43.128 Q 26.712 40.392 28.548 37.836 A 21.205 21.205 0 0 1 30.653 35.321 A 16.834 16.834 0 0 1 32.544 33.66 Q 34.704 32.04 37.152 32.04 A 6.052 6.052 0 0 1 38.307 32.143 Q 38.95 32.268 39.436 32.547 A 2.683 2.683 0 0 1 40.356 33.408 A 5.44 5.44 0 0 1 41.192 35.69 A 7.034 7.034 0 0 1 41.256 36.648 Q 41.256 38.462 40.648 40.613 A 20.481 20.481 0 0 1 40.608 40.752 A 133.333 133.333 0 0 1 39.319 44.942 A 122.529 122.529 0 0 1 39.276 45.072 A 16.952 16.952 0 0 0 38.873 46.499 Q 38.592 47.704 38.592 48.672 Q 38.592 49.608 39.06 50.364 A 1.484 1.484 0 0 0 39.882 50.996 Q 40.255 51.12 40.752 51.12 A 4.553 4.553 0 0 0 43.203 50.385 Q 43.842 49.985 44.451 49.368 A 8.782 8.782 0 0 0 44.532 49.284 A 20.383 20.383 0 0 0 46.437 46.968 A 26.569 26.569 0 0 0 47.808 44.82 A 57.517 57.517 0 0 0 49.529 41.606 A 47.658 47.658 0 0 0 50.4 39.744 Z M 158.328 39.744 L 159.048 40.464 Q 157.536 44.352 155.16 47.304 Q 152.784 50.256 150.084 51.912 A 12.341 12.341 0 0 1 147.825 53.015 A 8.897 8.897 0 0 1 144.792 53.568 Q 142.884 53.568 141.696 52.756 A 3.78 3.78 0 0 1 140.868 51.984 A 5.876 5.876 0 0 1 139.894 50.247 A 5.218 5.218 0 0 1 139.608 48.528 Q 139.608 48.124 139.671 47.626 A 10.179 10.179 0 0 1 139.68 47.556 Q 139.752 47.016 139.824 46.44 A 55.436 55.436 0 0 1 137.942 48.847 Q 136.937 50.055 135.997 51.018 A 22.266 22.266 0 0 1 134.172 52.704 Q 131.666 54.752 129.056 54.792 A 6.791 6.791 0 0 1 128.952 54.792 Q 126.72 54.792 125.172 53.316 A 4.596 4.596 0 0 1 123.999 51.418 Q 123.753 50.688 123.668 49.795 A 10.378 10.378 0 0 1 123.624 48.816 A 11.671 11.671 0 0 1 123.624 48.776 Q 123.633 46.201 124.776 43.236 A 27.214 27.214 0 0 1 126.976 38.818 A 31.951 31.951 0 0 1 127.944 37.332 Q 129.96 34.416 132.516 32.004 A 24.156 24.156 0 0 1 136.167 29.147 A 21.015 21.015 0 0 1 137.916 28.152 A 13.735 13.735 0 0 1 140.928 27.029 A 11.327 11.327 0 0 1 143.568 26.712 Q 146.376 26.712 148.248 28.188 A 4.687 4.687 0 0 1 150.098 31.589 A 6.013 6.013 0 0 1 150.12 32.112 Q 150.12 33.912 149.148 34.56 A 3.587 3.587 0 0 1 148.063 35.036 Q 147.593 35.16 147.039 35.195 A 7.121 7.121 0 0 1 146.592 35.208 Q 146.736 34.632 146.844 33.948 Q 146.952 33.264 146.952 32.688 Q 146.952 31.032 146.16 29.844 A 2.491 2.491 0 0 0 144.813 28.853 Q 144.214 28.656 143.424 28.656 A 6.383 6.383 0 0 0 141.069 29.126 Q 140.255 29.447 139.43 29.987 A 11.104 11.104 0 0 0 139.32 30.06 A 17.057 17.057 0 0 0 137.048 31.906 A 22.781 22.781 0 0 0 135.288 33.804 Q 133.344 36.144 131.832 38.88 A 32.628 32.628 0 0 0 130.093 42.524 A 27.72 27.72 0 0 0 129.456 44.28 Q 128.736 46.5 128.616 48.319 A 10.825 10.825 0 0 0 128.592 49.032 A 6.005 6.005 0 0 0 128.666 50.022 Q 128.961 51.779 130.431 51.838 A 2.584 2.584 0 0 0 130.536 51.84 A 4.191 4.191 0 0 0 131.985 51.565 Q 132.579 51.347 133.205 50.955 A 10.039 10.039 0 0 0 134.136 50.292 Q 135.943 48.854 137.843 46.669 A 40.983 40.983 0 0 0 138.132 46.332 Q 140.184 43.92 142.056 41.328 Q 143.928 38.736 145.368 36.576 A 7.012 7.012 0 0 1 145.461 36.441 Q 145.668 36.144 145.728 36.144 A 5.034 5.034 0 0 1 146.023 36.204 Q 146.35 36.279 146.782 36.413 A 16.316 16.316 0 0 1 146.844 36.432 Q 147.528 36.648 148.032 37.008 Q 148.536 37.368 148.536 37.944 A 1.807 1.807 0 0 1 148.479 38.37 Q 148.344 38.924 147.888 39.708 Q 147.283 40.75 146.553 42.075 A 176.628 176.628 0 0 0 146.448 42.264 Q 145.656 43.704 145.008 45.18 Q 144.383 46.605 144.361 47.861 A 5.223 5.223 0 0 0 144.36 47.952 A 4.218 4.218 0 0 0 144.74 49.684 A 5.154 5.154 0 0 0 144.936 50.076 Q 145.44 50.99 146.496 51.104 A 2.908 2.908 0 0 0 146.808 51.12 A 3.697 3.697 0 0 0 148.07 50.87 Q 149.227 50.446 150.692 49.308 A 22.719 22.719 0 0 0 151.92 48.276 A 22.559 22.559 0 0 0 154.256 45.804 Q 155.362 44.459 156.476 42.773 A 53.835 53.835 0 0 0 158.328 39.744 Z M 217.296 29.664 L 217.296 28.368 Q 217.872 28.44 218.664 28.512 Q 219.403 28.58 220.331 28.647 A 129.938 129.938 0 0 0 220.464 28.656 Q 221.976 24.768 223.704 21.132 Q 225.432 17.496 227.124 14.652 A 39.083 39.083 0 0 1 228.373 12.681 Q 229.396 11.174 230.364 10.116 A 10.299 10.299 0 0 1 231.064 9.416 Q 232.165 8.424 232.992 8.424 A 1.565 1.565 0 0 1 233.992 8.784 A 1.981 1.981 0 0 1 234.036 8.82 Q 234.482 9.198 234.503 9.934 A 2.586 2.586 0 0 1 234.504 10.008 Q 234.504 11.232 232.992 14.004 A 187.164 187.164 0 0 1 231.757 16.23 Q 231.2 17.219 230.573 18.309 A 360.808 360.808 0 0 1 229.248 20.592 A 96.942 96.942 0 0 0 226.247 26.146 A 114.066 114.066 0 0 0 224.928 28.872 L 226.26 28.872 L 227.592 28.872 Q 229.968 28.872 232.596 28.8 Q 235.224 28.728 237.888 28.44 L 237.888 29.736 A 217.804 217.804 0 0 1 234.357 30.094 Q 232.46 30.27 230.796 30.384 A 100.756 100.756 0 0 1 228.186 30.532 Q 226.991 30.583 225.918 30.596 A 58.82 58.82 0 0 1 225.216 30.6 L 224.676 30.6 L 224.136 30.6 Q 222.48 34.416 221.328 38.448 A 29.745 29.745 0 0 0 220.278 44.012 A 26.012 26.012 0 0 0 220.176 46.296 Q 220.176 49.392 221.112 50.724 Q 222.048 52.056 224.208 52.056 A 9.106 9.106 0 0 0 228.374 51.009 Q 229.677 50.346 230.96 49.266 A 17.897 17.897 0 0 0 231.552 48.744 A 24.094 24.094 0 0 0 234.837 44.979 Q 236.17 43.109 237.351 40.822 A 42.306 42.306 0 0 0 237.888 39.744 L 238.824 40.464 Q 237.096 44.496 234.468 47.736 A 23.601 23.601 0 0 1 231.203 51.064 A 19.6 19.6 0 0 1 228.672 52.848 A 13.462 13.462 0 0 1 224.757 54.429 A 12.031 12.031 0 0 1 222.12 54.72 A 8.543 8.543 0 0 1 220.243 54.527 Q 218.481 54.13 217.368 52.92 A 5.691 5.691 0 0 1 216.179 50.853 Q 215.887 49.987 215.778 48.93 A 12.986 12.986 0 0 1 215.712 47.592 A 21.725 21.725 0 0 1 215.872 45.067 Q 216.027 43.746 216.333 42.239 A 50.234 50.234 0 0 1 216.9 39.78 A 95.179 95.179 0 0 1 219.026 32.673 A 108.114 108.114 0 0 1 219.888 30.24 Q 219.168 30.096 218.52 29.988 A 6.619 6.619 0 0 1 217.441 29.717 A 6.043 6.043 0 0 1 217.296 29.664 Z M 264.168 39.96 L 265.032 40.68 Q 263.592 44.064 260.964 45.468 A 13.219 13.219 0 0 1 258.791 46.403 Q 257.47 46.828 256.218 46.868 A 8.115 8.115 0 0 1 255.96 46.872 A 8.852 8.852 0 0 1 254.268 46.714 A 8.189 8.189 0 0 1 254.16 46.692 Q 253.296 46.512 252.504 46.152 A 28.321 28.321 0 0 1 249.175 49.86 A 24.026 24.026 0 0 1 247.14 51.552 A 13.162 13.162 0 0 1 245.09 52.815 Q 243.829 53.43 242.604 53.624 A 7.149 7.149 0 0 1 241.488 53.712 A 7.891 7.891 0 0 1 239.889 53.562 Q 238.933 53.363 238.222 52.905 A 3.909 3.909 0 0 1 237.096 51.804 A 7.384 7.384 0 0 1 235.946 48.905 A 9.997 9.997 0 0 1 235.8 47.16 Q 235.8 44.928 236.52 42.552 Q 237.24 40.176 238.428 38.088 A 15.365 15.365 0 0 1 239.605 36.305 A 11.293 11.293 0 0 1 241.092 34.704 A 6.263 6.263 0 0 1 242.111 33.967 Q 242.798 33.574 243.492 33.458 A 3.547 3.547 0 0 1 244.08 33.408 A 2.685 2.685 0 0 1 244.568 33.455 A 3.292 3.292 0 0 1 244.836 33.516 A 7.014 7.014 0 0 1 245.547 33.751 A 6.467 6.467 0 0 1 245.592 33.768 A 3.962 3.962 0 0 0 245.208 34.169 Q 244.691 34.78 244.044 35.892 A 23.967 23.967 0 0 0 243.072 37.757 A 31.152 31.152 0 0 0 242.352 39.42 Q 241.56 41.4 241.02 43.344 Q 240.631 44.744 240.522 45.844 A 8.264 8.264 0 0 0 240.48 46.656 Q 240.48 48.816 241.2 49.788 A 2.53 2.53 0 0 0 241.842 50.409 A 2.192 2.192 0 0 0 243.072 50.76 Q 244.584 50.76 246.672 49.14 A 21.574 21.574 0 0 0 248.87 47.165 A 29.178 29.178 0 0 0 250.776 45 A 10.443 10.443 0 0 1 248.217 41.853 A 12.918 12.918 0 0 1 247.644 40.644 Q 246.528 37.944 246.528 35.136 A 12.082 12.082 0 0 1 247.208 31.066 A 11.501 11.501 0 0 1 247.356 30.672 A 8.54 8.54 0 0 1 248.525 28.587 A 7.332 7.332 0 0 1 249.768 27.324 A 5.782 5.782 0 0 1 252.952 26.091 A 7.442 7.442 0 0 1 253.584 26.064 Q 256.536 26.064 257.544 27.648 A 6.19 6.19 0 0 1 258.352 29.649 Q 258.552 30.55 258.552 31.608 A 13.647 13.647 0 0 1 258.251 34.375 Q 257.985 35.66 257.483 37.05 A 24.728 24.728 0 0 1 257.184 37.836 Q 255.816 41.256 253.728 44.424 Q 255.024 45.144 256.464 45.144 A 6.794 6.794 0 0 0 257.587 45.045 Q 258.107 44.958 258.673 44.794 A 12.176 12.176 0 0 0 259.056 44.676 A 7.852 7.852 0 0 0 260.709 43.907 A 10.423 10.423 0 0 0 261.9 43.056 A 7.581 7.581 0 0 0 263.494 41.229 A 9.855 9.855 0 0 0 264.168 39.96 Z M 76.68 28.728 L 76.68 27.864 A 12.606 12.606 0 0 1 76.736 26.629 Q 76.905 24.921 77.58 24.084 A 4.144 4.144 0 0 1 78.095 23.545 Q 78.413 23.27 78.745 23.126 A 1.85 1.85 0 0 1 79.488 22.968 A 1.836 1.836 0 0 1 79.812 22.995 Q 79.99 23.027 80.13 23.097 A 0.854 0.854 0 0 1 80.352 23.256 A 1.061 1.061 0 0 1 80.538 23.502 A 0.835 0.835 0 0 1 80.64 23.904 Q 80.64 24.176 80.517 24.693 A 11.398 11.398 0 0 1 80.424 25.056 Q 80.267 25.632 80.224 26.435 A 11.965 11.965 0 0 0 80.208 27.072 A 13.966 13.966 0 0 0 80.472 29.709 A 19.192 19.192 0 0 0 81.144 32.22 Q 82.08 34.992 83.016 38.052 Q 83.952 41.112 83.952 44.424 Q 83.952 45.36 83.844 46.26 A 12.253 12.253 0 0 1 83.633 47.498 A 10.574 10.574 0 0 1 83.52 47.952 A 9.644 9.644 0 0 0 87.138 46.515 A 12.136 12.136 0 0 0 88.272 45.684 A 11.961 11.961 0 0 0 89.858 44.081 Q 90.556 43.24 91.24 42.174 A 29.549 29.549 0 0 0 92.592 39.816 L 93.24 40.536 A 15.19 15.19 0 0 1 91.903 43.439 A 10.823 10.823 0 0 1 89.136 46.548 Q 86.4 48.6 83.16 49.104 A 9.864 9.864 0 0 1 81.924 51.459 A 7.708 7.708 0 0 1 79.524 53.64 A 10.767 10.767 0 0 1 74.567 55.066 A 12.928 12.928 0 0 1 73.944 55.08 A 12.562 12.562 0 0 1 71.786 54.907 Q 69.88 54.574 68.58 53.604 A 8.426 8.426 0 0 1 66.497 51.403 A 7.835 7.835 0 0 1 65.772 49.968 A 12.263 12.263 0 0 1 64.984 46.593 A 11.304 11.304 0 0 1 64.944 45.648 Q 64.944 43.488 65.52 42.336 A 5.704 5.704 0 0 1 66.03 41.496 Q 66.366 41.04 66.765 40.726 A 3.363 3.363 0 0 1 66.924 40.608 A 8.908 8.908 0 0 1 67.684 40.132 Q 68.08 39.912 68.458 39.764 A 5.429 5.429 0 0 1 68.508 39.744 Q 69.118 39.512 69.424 39.28 A 1.267 1.267 0 0 0 69.552 39.168 Q 71.712 36.792 73.512 34.2 Q 75.312 31.608 76.68 28.728 Z M 167.184 28.728 L 167.184 27.864 A 12.606 12.606 0 0 1 167.24 26.629 Q 167.409 24.921 168.084 24.084 A 4.144 4.144 0 0 1 168.599 23.545 Q 168.917 23.27 169.249 23.126 A 1.85 1.85 0 0 1 169.992 22.968 A 1.836 1.836 0 0 1 170.316 22.995 Q 170.494 23.027 170.634 23.097 A 0.854 0.854 0 0 1 170.856 23.256 A 1.061 1.061 0 0 1 171.042 23.502 A 0.835 0.835 0 0 1 171.144 23.904 Q 171.144 24.176 171.021 24.693 A 11.398 11.398 0 0 1 170.928 25.056 Q 170.771 25.632 170.728 26.435 A 11.965 11.965 0 0 0 170.712 27.072 A 13.966 13.966 0 0 0 170.976 29.709 A 19.192 19.192 0 0 0 171.648 32.22 Q 172.584 34.992 173.52 38.052 Q 174.456 41.112 174.456 44.424 Q 174.456 45.36 174.348 46.26 A 12.253 12.253 0 0 1 174.137 47.498 A 10.574 10.574 0 0 1 174.024 47.952 A 9.644 9.644 0 0 0 177.642 46.515 A 12.136 12.136 0 0 0 178.776 45.684 A 11.961 11.961 0 0 0 180.362 44.081 Q 181.06 43.24 181.744 42.174 A 29.549 29.549 0 0 0 183.096 39.816 L 183.744 40.536 A 15.19 15.19 0 0 1 182.407 43.439 A 10.823 10.823 0 0 1 179.64 46.548 Q 176.904 48.6 173.664 49.104 A 9.864 9.864 0 0 1 172.428 51.459 A 7.708 7.708 0 0 1 170.028 53.64 A 10.767 10.767 0 0 1 165.071 55.066 A 12.928 12.928 0 0 1 164.448 55.08 A 12.562 12.562 0 0 1 162.29 54.907 Q 160.384 54.574 159.084 53.604 A 8.426 8.426 0 0 1 157.001 51.403 A 7.835 7.835 0 0 1 156.276 49.968 A 12.263 12.263 0 0 1 155.488 46.593 A 11.304 11.304 0 0 1 155.448 45.648 Q 155.448 43.488 156.024 42.336 A 5.704 5.704 0 0 1 156.534 41.496 Q 156.87 41.04 157.269 40.726 A 3.363 3.363 0 0 1 157.428 40.608 A 8.908 8.908 0 0 1 158.188 40.132 Q 158.584 39.912 158.962 39.764 A 5.429 5.429 0 0 1 159.012 39.744 Q 159.622 39.512 159.928 39.28 A 1.267 1.267 0 0 0 160.056 39.168 Q 162.216 36.792 164.016 34.2 Q 165.816 31.608 167.184 28.728 Z M 67.752 39.744 L 68.4 40.464 A 26.544 26.544 0 0 1 66.445 44.941 Q 65.014 47.502 63.109 49.32 A 15.8 15.8 0 0 1 62.388 49.968 A 15.721 15.721 0 0 1 59.273 52.051 A 11.219 11.219 0 0 1 54.216 53.28 Q 51.951 53.28 50.623 52.133 A 4.271 4.271 0 0 1 50.04 51.516 A 6.491 6.491 0 0 1 48.731 48.243 A 8.494 8.494 0 0 1 48.672 47.232 A 11.642 11.642 0 0 1 48.744 45.992 Q 48.813 45.351 48.948 44.617 A 28.384 28.384 0 0 1 49.284 43.056 A 46.701 46.701 0 0 1 50.204 39.808 A 56.642 56.642 0 0 1 50.904 37.764 A 38.458 38.458 0 0 1 53.079 32.852 A 35.505 35.505 0 0 1 53.244 32.544 A 22.341 22.341 0 0 1 54.444 30.575 Q 55.089 29.636 55.771 28.885 A 12.842 12.842 0 0 1 56.088 28.548 A 7.201 7.201 0 0 1 56.956 27.783 Q 58.016 27 59.04 27 Q 59.688 27 60.156 27.396 Q 60.602 27.774 60.623 28.51 A 2.586 2.586 0 0 1 60.624 28.584 Q 60.624 29.448 59.508 31.392 A 215.845 215.845 0 0 1 58.456 33.204 Q 57.912 34.13 57.297 35.159 A 380.103 380.103 0 0 1 56.88 35.856 Q 55.368 38.376 54.252 41.148 Q 53.136 43.92 53.136 46.44 A 12.203 12.203 0 0 0 53.183 47.561 Q 53.285 48.659 53.605 49.322 A 2.085 2.085 0 0 0 54 49.896 Q 54.685 50.581 55.957 50.723 A 6.377 6.377 0 0 0 56.664 50.76 A 5.742 5.742 0 0 0 58.858 50.296 Q 59.703 49.948 60.582 49.34 A 14.085 14.085 0 0 0 61.884 48.312 Q 64.344 46.14 67.06 41.074 A 63.125 63.125 0 0 0 67.752 39.744 Z M 99.936 29.16 A 20.373 20.373 0 0 0 102.048 27.234 A 27.204 27.204 0 0 0 103.86 25.128 Q 105.768 22.68 107.424 19.908 Q 109.08 17.136 110.376 14.472 A 50.271 50.271 0 0 0 111.4 12.238 Q 111.84 11.207 112.178 10.266 A 28.462 28.462 0 0 0 112.392 9.648 Q 113.112 7.488 113.112 6.408 A 2.833 2.833 0 0 0 113.109 6.263 Q 113.096 6.025 113.04 5.94 A 0.233 0.233 0 0 0 112.871 5.836 A 0.339 0.339 0 0 0 112.824 5.832 Q 112.32 5.832 110.772 7.812 A 36.351 36.351 0 0 0 109.652 9.331 Q 109.092 10.131 108.481 11.074 A 85.66 85.66 0 0 0 107.208 13.104 Q 105.192 16.416 103.248 20.592 Q 101.304 24.768 99.936 29.16 Z M 190.44 29.16 A 20.373 20.373 0 0 0 192.552 27.234 A 27.204 27.204 0 0 0 194.364 25.128 Q 196.272 22.68 197.928 19.908 Q 199.584 17.136 200.88 14.472 A 50.271 50.271 0 0 0 201.904 12.238 Q 202.344 11.207 202.682 10.266 A 28.462 28.462 0 0 0 202.896 9.648 Q 203.616 7.488 203.616 6.408 A 2.833 2.833 0 0 0 203.613 6.263 Q 203.6 6.025 203.544 5.94 A 0.233 0.233 0 0 0 203.375 5.836 A 0.339 0.339 0 0 0 203.328 5.832 Q 202.824 5.832 201.276 7.812 A 36.351 36.351 0 0 0 200.156 9.331 Q 199.596 10.131 198.985 11.074 A 85.66 85.66 0 0 0 197.712 13.104 Q 195.696 16.416 193.752 20.592 Q 191.808 24.768 190.44 29.16 Z M 78.984 47.88 A 14.004 14.004 0 0 0 79.17 46.663 A 15.803 15.803 0 0 0 79.2 46.368 Q 79.255 45.762 79.268 44.987 A 29.451 29.451 0 0 0 79.272 44.496 Q 79.272 41.112 78.444 37.764 Q 77.616 34.416 77.04 31.464 Q 75.384 34.2 73.548 36.684 Q 72.071 38.683 70.71 40.146 A 26.149 26.149 0 0 1 70.056 40.824 A 12.13 12.13 0 0 0 71.757 43.459 A 16.019 16.019 0 0 0 73.404 45.144 A 11.621 11.621 0 0 0 77.585 47.503 A 14.411 14.411 0 0 0 78.984 47.88 Z M 169.488 47.88 A 14.004 14.004 0 0 0 169.674 46.663 A 15.803 15.803 0 0 0 169.704 46.368 Q 169.759 45.762 169.772 44.987 A 29.451 29.451 0 0 0 169.776 44.496 Q 169.776 41.112 168.948 37.764 Q 168.12 34.416 167.544 31.464 Q 165.888 34.2 164.052 36.684 Q 162.575 38.683 161.214 40.146 A 26.149 26.149 0 0 1 160.56 40.824 A 12.13 12.13 0 0 0 162.261 43.459 A 16.019 16.019 0 0 0 163.908 45.144 A 11.621 11.621 0 0 0 168.089 47.503 A 14.411 14.411 0 0 0 169.488 47.88 Z M 252.072 43.128 Q 253.872 40.464 255.06 37.548 A 17.242 17.242 0 0 0 255.913 34.886 A 12.769 12.769 0 0 0 256.248 32.04 A 11.33 11.33 0 0 0 256.201 30.968 Q 256.078 29.683 255.636 28.98 A 2.614 2.614 0 0 0 255.244 28.489 A 1.614 1.614 0 0 0 254.088 28.008 A 2.325 2.325 0 0 0 252.952 28.327 Q 252.057 28.824 251.136 30.096 A 7.727 7.727 0 0 0 249.855 33.042 A 10.979 10.979 0 0 0 249.624 35.352 A 15.112 15.112 0 0 0 250.198 39.432 A 16.833 16.833 0 0 0 250.236 39.564 Q 250.848 41.688 252.072 43.128 Z M 74.088 52.56 A 3.533 3.533 0 0 0 74.684 52.504 Q 75.402 52.38 76.392 51.984 A 2.897 2.897 0 0 0 77.51 51.157 Q 78.172 50.388 78.624 49.032 Q 75.6 48.456 73.26 46.656 A 20.067 20.067 0 0 1 71.672 45.306 Q 70.932 44.603 70.373 43.9 A 10.17 10.17 0 0 1 69.768 43.056 A 1.405 1.405 0 0 0 68.487 43.889 Q 68.184 44.505 68.184 45.576 Q 68.184 48.168 69.732 50.364 A 4.919 4.919 0 0 0 73.282 52.512 A 6.527 6.527 0 0 0 74.088 52.56 Z M 164.592 52.56 A 3.533 3.533 0 0 0 165.188 52.504 Q 165.906 52.38 166.896 51.984 A 2.897 2.897 0 0 0 168.014 51.157 Q 168.676 50.388 169.128 49.032 Q 166.104 48.456 163.764 46.656 A 20.067 20.067 0 0 1 162.176 45.306 Q 161.436 44.603 160.877 43.9 A 10.17 10.17 0 0 1 160.272 43.056 A 1.405 1.405 0 0 0 158.991 43.889 Q 158.688 44.505 158.688 45.576 Q 158.688 48.168 160.236 50.364 A 4.919 4.919 0 0 0 163.786 52.512 A 6.527 6.527 0 0 0 164.592 52.56 Z M 61.553 20.093 A 3.927 3.927 0 0 0 62.856 20.304 A 4.518 4.518 0 0 0 64.683 19.922 A 5.541 5.541 0 0 0 66.06 19.044 Q 66.775 18.434 67.144 17.798 A 2.724 2.724 0 0 0 67.536 16.416 Q 67.536 15.795 67.369 15.359 A 1.513 1.513 0 0 0 66.888 14.688 Q 66.47 14.364 65.873 14.248 A 3.759 3.759 0 0 0 65.16 14.184 A 5.766 5.766 0 0 0 63.177 14.547 A 7.858 7.858 0 0 0 61.668 15.3 A 6.141 6.141 0 0 0 61.288 15.561 Q 60.832 15.9 60.526 16.273 A 2.556 2.556 0 0 0 59.904 17.928 A 2.9 2.9 0 0 0 59.933 18.347 A 1.882 1.882 0 0 0 60.804 19.728 A 3.564 3.564 0 0 0 61.553 20.093 Z" vector-effect="non-scaling-stroke"/></g></svg>